# xmcd CD database file
#
# Track frame offsets:
#	150
#	18845
#	47782
#	66257
#	89227
#	114225
#	127642
#	145530
#	166295
#	186000
#
# Disc length: 2849 seconds
#
# Revision: 0
# Processed by: cddbd v1.5.2PL0 Copyright (c) Steve Scherf et al.
# Submitted via: CDex 1.70beta2
#
DISCID=7c0b1f0a
DTITLE=Frank Vignola - Standards
DYEAR=2008
DGENRE=Jazz
TTITLE0=Nuages
TTITLE1=I'll See You In My Dreams
TTITLE2=Alone Again, Naturally
TTITLE3=Deep Purple
TTITLE4=I'm Getting Sentimental Over You
TTITLE5=Under The Double Eagle
TTITLE6=Misty
TTITLE7=The Lady Is A Tramp
TTITLE8=Polka Dots And Moonbeams
TTITLE9=12th Street Rag
EXTD=YEAR: 2008
EXTT0=
EXTT1=
EXTT2=
EXTT3=
EXTT4=
EXTT5=
EXTT6=
EXTT7=
EXTT8=
EXTT9=
PLAYORDER=
